<?xml version="1.0" encoding="utf-8"?>
<!-- Generator: Adobe Illustrator 27.8.0, SVG Export Plug-In . SVG Version: 6.00 Build 0)  -->
<svg version="1.1" id="Layer_1" xmlns="http://www.w3.org/2000/svg" xmlns:xlink="http://www.w3.org/1999/xlink" x="0px" y="0px"
	 viewBox="0 0 1677.9 91" style="enable-background:new 0 0 1677.9 91;" xml:space="preserve">
<style type="text/css">
	.st0{fill:#F2C614;}
</style>
<g id="hCfCpC.tif">
	<g>
		<path class="st0" d="M0.2-0.1C533.2-0.1,1144,0,1678-0.1c-66.5,55.5-180.4,74.3-260.4,50.3c-4.3-0.5-13.3,8.1-18.2,9.9
			c-79.7,43.1-186.7,40.6-261.3-12c-30.7,6.4-57.6,19.1-90,16.6c-25.5-1-56.9-9.9-81.1-18.3c-72.5,49-171.8,58-252.3,20.9
			c-10.7-5-20.9-10.8-30.4-17.7c-20.9,1.3-43.3,10.6-65.5,10.2c-29.4,2.6-59.1-2.4-87.4-7.6c-48.1,32.2-108.9,42.1-166,36
			c-31.1-3.6-61.7-12.4-89-27.7C171.8,83.9,49.9,55.4,0.2-0.1z"/>
	</g>
</g>
</svg>
