<svg xmlns="http://www.w3.org/2000/svg" width="1677.88" height="91"><path fill="#2c473a" d="M1512.94 91a258 258 0 0 1-45.631-4.011 224 224 0 0 1-40.791-11.3c-25.242-9.731-46.017-23.569-60.077-40.018-14.061 16.449-34.836 30.287-60.078 40.018a224 224 0 0 1-40.791 11.3A258 258 0 0 1 1219.94 91a259.5 259.5 0 0 1-41.583-3.316 230 230 0 0 1-37.731-9.4 188 188 0 0 1-32.573-14.655 141 141 0 0 1-26.112-19.084 141 141 0 0 1-26.113 19.084 188 188 0 0 1-32.574 14.655 230 230 0 0 1-37.731 9.4A259.5 259.5 0 0 1 943.94 91a261 261 0 0 1-37.809-2.731 235 235 0 0 1-34.749-7.785 199 199 0 0 1-30.72-12.225 156.6 156.6 0 0 1-25.722-16.053 156.7 156.7 0 0 1-25.722 16.051 199 199 0 0 1-30.72 12.225 235 235 0 0 1-34.749 7.785 263 263 0 0 1-76.833-.182 233.7 233.7 0 0 1-35.72-8.288 195.6 195.6 0 0 1-31.349-12.985 151.6 151.6 0 0 1-25.908-17 151.6 151.6 0 0 1-25.908 17A195.6 195.6 0 0 1 496.683 79.8a233.7 233.7 0 0 1-35.72 8.288 263 263 0 0 1-76.633.21 235.6 235.6 0 0 1-34.589-7.706 199.6 199.6 0 0 1-30.615-12.1 157.5 157.5 0 0 1-25.686-15.901 157.5 157.5 0 0 1-25.686 15.9 199.6 199.6 0 0 1-30.615 12.1A235.6 235.6 0 0 1 202.55 88.3a261 261 0 0 1-37.61 2.7 252.7 252.7 0 0 1-59.723-6.99 218 218 0 0 1-26.524-8.249 185.6 185.6 0 0 1-23.614-10.984 151 151 0 0 1-20.19-13.394A118 118 0 0 1 18.64 35.906 91.7 91.7 0 0 1 6.84 18.67 74.6 74.6 0 0 1 0 0h1677.88a74.6 74.6 0 0 1-6.835 18.669 91.7 91.7 0 0 1-11.8 17.236 118 118 0 0 1-16.253 15.478 151 151 0 0 1-20.19 13.394 185.6 185.6 0 0 1-23.614 10.984 218 218 0 0 1-26.524 8.249A252.7 252.7 0 0 1 1512.94 91" data-name="Sottrazione 1"/></svg>