<svg xmlns="http://www.w3.org/2000/svg" width="96" height="82.958" viewBox="0 0 96 82.958">
  <path id="Intersezione_1" data-name="Intersezione 1" d="M91.986,82.952a2,2,0,0,1-2-2l-10-.009a2,2,0,0,1-2,2l-10-.01a2,2,0,0,1-2-2l-10-.009a2,2,0,0,1-2,2l-10-.01a2,2,0,0,1-2-2l-10-.009a2,2,0,0,1-2,2l-10-.01a2,2,0,0,1-2-2l-10-.009a2,2,0,0,1-2,2L0,82.866V2H.572a2,2,0,0,1,2-2l10,.01a2,2,0,0,1,2,2l10,.009a2,2,0,0,1,2-2l10,.01a2,2,0,0,1,2,2l10,.009a2,2,0,0,1,2-2l10,.01a2,2,0,0,1,2,2l10,.009a2,2,0,0,1,2-2l10,.009a2,2,0,0,1,2,2L96,2.072V82.956Z" transform="translate(0.002 0.002)" fill="#f2c614"/>
</svg>
