<svg width="36" height="36" viewBox="0 0 36 36" fill="none" xmlns="http://www.w3.org/2000/svg">
<path d="M15.784 17.2241L18.6026 21.3111C18.7123 21.4701 18.8494 21.5417 18.9919 21.5417C19.1345 21.5417 19.2716 21.4622 19.3813 21.3111C19.5951 21.001 19.5951 20.5001 19.3813 20.19L16.7217 16.3335V8.62852C16.7217 8.19119 16.475 7.83337 16.1734 7.83337C15.8718 7.83337 15.625 8.19119 15.625 8.62852V16.6595C15.625 16.7629 15.6415 16.8662 15.6689 16.9696C15.6963 17.065 15.7347 17.1525 15.7895 17.2241H15.784Z" fill="white" stroke="white" stroke-linejoin="round"/>
<path d="M6.23284 26.9967C6.23284 26.9967 6.2483 27.0199 6.25603 27.0353C6.26376 27.0508 6.27922 27.0508 6.29469 27.0585C8.9539 29.7023 12.6103 31.3334 16.6455 31.3334C20.6807 31.3334 24.3371 29.6946 26.9963 27.0585C26.9963 27.0585 27.0195 27.0431 27.035 27.0353C27.0504 27.0276 27.0504 27.0122 27.0582 26.9967C29.7019 24.3375 31.333 20.6811 31.333 16.6459C31.333 12.6107 29.6942 8.95426 27.0582 6.29505C27.0582 6.28732 27.0427 6.27186 27.035 6.2564C27.0272 6.24094 27.0118 6.24094 26.9963 6.23321C24.3371 3.58946 20.6807 1.95837 16.6455 1.95837C12.6103 1.95837 8.9539 3.59719 6.29469 6.23321C6.28696 6.24094 6.27149 6.24867 6.25603 6.2564C6.24057 6.26413 6.24057 6.27959 6.23284 6.29505C3.58909 8.95426 1.95801 12.6107 1.95801 16.6459C1.95801 20.6811 3.59682 24.3375 6.23284 26.9967ZM4.98827 15.8728H3.54271C3.72051 12.8349 4.93416 10.0752 6.8358 7.93387L7.8562 8.95426C8.0108 9.10887 8.20406 9.17844 8.40505 9.17844C8.60603 9.17844 8.79929 9.10114 8.9539 8.95426C9.25538 8.65278 9.25538 8.16577 8.9539 7.86429L7.9335 6.8439C10.0748 4.94226 12.8345 3.7286 15.8725 3.55081V4.99637C15.8725 5.42153 16.2203 5.76939 16.6455 5.76939C17.0707 5.76939 17.4185 5.42153 17.4185 4.99637V3.55081C20.4565 3.7286 23.2162 4.94226 25.3575 6.8439L24.3371 7.86429C24.0356 8.16577 24.0356 8.65278 24.3371 8.95426C24.4917 9.10887 24.685 9.17844 24.886 9.17844C25.087 9.17844 25.2802 9.10114 25.4348 8.95426L26.4552 7.93387C28.3569 10.0752 29.5705 12.8349 29.7483 15.8728H28.3027C27.8776 15.8728 27.5297 16.2207 27.5297 16.6459C27.5297 17.071 27.8776 17.4189 28.3027 17.4189H29.7483C29.5705 20.4569 28.3569 23.2166 26.4552 25.3579L25.4348 24.3375C25.1333 24.036 24.6463 24.036 24.3448 24.3375C24.0434 24.639 24.0434 25.126 24.3448 25.4275L25.3652 26.4478C23.224 28.3495 20.4643 29.5631 17.4263 29.7409V28.2954C17.4263 27.8702 17.0784 27.5224 16.6532 27.5224C16.2281 27.5224 15.8802 27.8702 15.8802 28.2954V29.7409C12.8422 29.5631 10.0825 28.3495 7.94123 26.4478L8.96163 25.4275C9.26311 25.126 9.26311 24.639 8.96163 24.3375C8.66015 24.036 8.17314 24.036 7.87166 24.3375L6.85126 25.3579C4.94962 23.2166 3.73597 20.4569 3.55817 17.4189H5.00373C5.4289 17.4189 5.77676 17.071 5.77676 16.6459C5.77676 16.2207 5.4289 15.8728 5.00373 15.8728H4.98827Z" fill="white" stroke="white" stroke-linejoin="round"/>
</svg>
