<svg width="42" height="44" viewBox="0 0 42 44" fill="none" xmlns="http://www.w3.org/2000/svg">
<path d="M1.03237 44H40.2228C40.5259 44 40.8137 43.8636 41.0089 43.6274C41.2042 43.3913 41.2864 43.0765 41.235 42.7721L35.9887 11.3559C35.9065 10.8522 35.4749 10.4848 34.9765 10.4848H31.8729L31.0097 6.12951C30.6757 4.19846 29.6172 2.50355 28.0243 1.33863C26.4262 0.20519 24.4993 -0.230344 22.593 0.115984C22.2128 0.189448 21.8582 0.299643 21.5191 0.420334C21.2159 0.32588 20.9076 0.236674 20.5788 0.178953C18.6724 -0.167375 16.7455 0.273406 15.1526 1.41209C13.5649 2.55078 12.5064 4.24569 12.1724 6.19247L11.4633 10.4848H6.29407C5.79564 10.4848 5.36402 10.8522 5.28181 11.3559L0.0149718 42.7774C-0.036412 43.0817 0.045802 43.3965 0.24106 43.6327C0.441457 43.8636 0.729206 44 1.03237 44ZM34.1595 12.8987L38.8354 40.8516L34.1595 36.5802V12.8987ZM36.9085 41.901H29.3602L33.1318 38.4535L36.9085 41.901ZM31.878 14.3469C31.878 14.3469 31.8832 14.2945 31.8883 14.2682L32.1041 12.9669V36.5802L27.4282 40.8516L31.878 14.3469ZM26.8424 3.05978C27.9832 3.89411 28.7488 5.11676 28.9903 6.52306L29.7764 10.4848H26.1642L26.4622 8.74796C26.5341 8.32292 26.5701 7.89263 26.5701 7.47284C26.5701 5.42635 25.7223 3.50581 24.3195 2.12574C25.2136 2.2097 26.082 2.51929 26.8424 3.05978ZM20.589 3.3064C20.8922 3.05453 21.2211 2.86038 21.5602 2.68721C23.3432 3.56877 24.5147 5.43685 24.5147 7.47809C24.5147 7.77719 24.4891 8.08679 24.4377 8.39114L24.0728 10.4901H19.1195L18.7444 8.3544C18.4206 6.4496 19.1297 4.51855 20.589 3.3064ZM14.1918 6.5493C14.4281 5.16398 15.1886 3.94659 16.3242 3.13324C17.0538 2.61375 17.876 2.2989 18.7289 2.1992C17.0744 3.89411 16.3088 6.31841 16.7198 8.71647L17.0281 10.4848H13.5392L14.1918 6.5493ZM7.16245 12.5838H11.1087L10.3945 16.9024H10.2814C9.71623 16.9024 9.25377 17.3747 9.25377 17.9519C9.25377 18.5291 9.71623 19.0014 10.2814 19.0014H12.4807C13.0459 19.0014 13.5083 18.5291 13.5083 17.9519C13.5083 17.3747 13.0459 16.9024 12.4807 16.9024L13.1949 12.5838H23.708L22.963 16.9024H22.7369C22.1716 16.9024 21.7092 17.3747 21.7092 17.9519C21.7092 18.5291 22.1716 19.0014 22.7369 19.0014H24.9361C25.5013 19.0014 25.9638 18.5291 25.9638 17.9519C25.9638 17.4114 25.563 16.9706 25.0491 16.9129L25.7993 12.5838H30.0848L29.8535 13.9744C29.8535 13.9744 29.8484 14.0216 29.8432 14.0478L25.1673 41.901H2.25017L7.16245 12.5838Z" fill="#0D0D0D"/>
</svg>
